<?xml version="1.0" encoding="UTF-8" standalone="no"?>
<!-- Created with Inkscape (http://www.inkscape.org/) -->

<svg
   xmlns:dc="http://purl.org/dc/elements/1.1/"
   xmlns:cc="http://creativecommons.org/ns#"
   xmlns:rdf="http://www.w3.org/1999/02/22-rdf-syntax-ns#"
   xmlns:svg="http://www.w3.org/2000/svg"
   xmlns="http://www.w3.org/2000/svg"
   xmlns:sodipodi="http://sodipodi.sourceforge.net/DTD/sodipodi-0.dtd"
   xmlns:inkscape="http://www.inkscape.org/namespaces/inkscape"
   width="32"
   height="32"
   viewBox="0 0 8.4666664 8.4666672"
   version="1.1"
   id="svg4780"
   inkscape:version="0.92.4 (5da689c313, 2019-01-14)"
   sodipodi:docname="GEAR.svg">
  <defs
     id="defs4774" />
  <sodipodi:namedview
     id="base"
     pagecolor="#ffffff"
     bordercolor="#666666"
     borderopacity="1.0"
     inkscape:pageopacity="0.0"
     inkscape:pageshadow="2"
     inkscape:zoom="22.627417"
     inkscape:cx="15.712221"
     inkscape:cy="14.329784"
     inkscape:document-units="px"
     inkscape:current-layer="layer1"
     showgrid="true"
     units="px"
     inkscape:window-width="1920"
     inkscape:window-height="1017"
     inkscape:window-x="-8"
     inkscape:window-y="-8"
     inkscape:window-maximized="1">
    <inkscape:grid
       type="xygrid"
       id="grid5332" />
  </sodipodi:namedview>
  <metadata
     id="metadata4777">
    <rdf:RDF>
      <cc:Work
         rdf:about="">
        <dc:format>image/svg+xml</dc:format>
        <dc:type
           rdf:resource="http://purl.org/dc/dcmitype/StillImage" />
        <dc:title></dc:title>
      </cc:Work>
    </rdf:RDF>
  </metadata>
  <g
     inkscape:groupmode="layer"
     id="layer5"
     inkscape:label="Layer 2" />
  <g
     inkscape:label="Layer 1"
     inkscape:groupmode="layer"
     id="layer1"
     transform="translate(0,-288.53332)">
    <path
       style="fill:#cccccc;fill-opacity:1;stroke:#000000;stroke-width:0.24947822;stroke-miterlimit:4;stroke-dasharray:none;stroke-opacity:1"
       d="m 3.2354206,288.775 v 1.17284 a 2.9937388,2.9937388 0 0 0 -0.2904081,0.11938 l -0.8283458,-0.82883 -1.41159842,1.4116 0.82932012,0.82932 A 2.9937388,2.9937388 0 0 0 1.414522,291.76874 H 0.24168198 v 1.99583 H 1.414522 a 2.9937388,2.9937388 0 0 0 0.1193792,0.2904 l -0.82883292,0.82835 1.41159842,1.4116 0.8293202,-0.82932 a 2.9937388,2.9937388 0 0 0 0.2894337,0.11986 v 1.17284 h 1.9958257 v -1.17284 a 2.9937388,2.9937388 0 0 0 0.2904081,-0.11937 l 0.8283458,0.82883 1.4115984,-1.4116 -0.8293203,-0.82932 a 2.9937388,2.9937388 0 0 0 0.1198666,-0.28943 h 1.17284 v -1.99583 h -1.17284 a 2.9937388,2.9937388 0 0 0 -0.1193793,-0.29041 l 0.828833,-0.82834 -1.4115984,-1.4116 -0.8293202,0.82932 A 2.9937388,2.9937388 0 0 0 5.2312463,289.94784 V 288.775 Z m 0.9979128,2.99374 a 0.99791291,0.99791291 0 0 1 0.9979129,0.99791 0.99791291,0.99791291 0 0 1 -0.9979129,0.99792 0.99791291,0.99791291 0 0 1 -0.9979128,-0.99792 0.99791291,0.99791291 0 0 1 0.9979128,-0.99791 z"
       id="path5334"
       inkscape:connector-curvature="0" />
  </g>
</svg>
