<?xml version="1.0" encoding="UTF-8" standalone="no"?>
<!-- Created with Inkscape (http://www.inkscape.org/) -->

<svg
   xmlns:dc="http://purl.org/dc/elements/1.1/"
   xmlns:cc="http://creativecommons.org/ns#"
   xmlns:rdf="http://www.w3.org/1999/02/22-rdf-syntax-ns#"
   xmlns:svg="http://www.w3.org/2000/svg"
   xmlns="http://www.w3.org/2000/svg"
   xmlns:sodipodi="http://sodipodi.sourceforge.net/DTD/sodipodi-0.dtd"
   xmlns:inkscape="http://www.inkscape.org/namespaces/inkscape"
   width="40"
   height="40"
   viewBox="0 0 10.583333 10.583334"
   version="1.1"
   id="svg8"
   inkscape:export-filename="D:\SteamLibrary\steamapps\common\RimWorld\Mods\FactionColonies\Textures\GUI\happiness.png"
   inkscape:export-xdpi="96"
   inkscape:export-ydpi="96"
   inkscape:version="0.92.4 (5da689c313, 2019-01-14)"
   sodipodi:docname="happiness.svg">
  <defs
     id="defs2" />
  <sodipodi:namedview
     id="base"
     pagecolor="#ffffff"
     bordercolor="#666666"
     borderopacity="1.0"
     inkscape:pageopacity="0.0"
     inkscape:pageshadow="2"
     inkscape:zoom="15.839192"
     inkscape:cx="16.354072"
     inkscape:cy="16.790333"
     inkscape:document-units="mm"
     inkscape:current-layer="layer1"
     showgrid="false"
     units="px"
     inkscape:window-width="1920"
     inkscape:window-height="1017"
     inkscape:window-x="-8"
     inkscape:window-y="-8"
     inkscape:window-maximized="1" />
  <metadata
     id="metadata5">
    <rdf:RDF>
      <cc:Work
         rdf:about="">
        <dc:format>image/svg+xml</dc:format>
        <dc:type
           rdf:resource="http://purl.org/dc/dcmitype/StillImage" />
        <dc:title></dc:title>
      </cc:Work>
    </rdf:RDF>
  </metadata>
  <g
     inkscape:label="Layer 1"
     inkscape:groupmode="layer"
     id="layer1"
     transform="translate(0,-286.41665)">
    <path
       style="fill:none;stroke:#000000;stroke-width:0.26458332px;stroke-linecap:butt;stroke-linejoin:miter;stroke-opacity:1"
       d="m 0.63476512,294.89524 1.73725198,-2.20497 c 0,0 -1.2083707,0.2161 -1.3363476,-0.88534 -0.0809724,-0.69689 0.8686258,-1.05237 0.8686258,-1.05237 0,0 -1.00226064,-0.61807 -0.6681737,-1.48669 0.189205,-0.56148 0.9977273,-0.84876 1.3614674,-0.59277 0,0 0.01962,-0.67739 0.6931671,-1.02755 0.6457573,-0.40575 1.403165,0.13363 1.403165,0.13363 0,0 0.6514694,-0.58464 1.5367999,-0.45101 0.8853302,0.13364 0.9187388,0.91874 0.9187388,0.91874 0,0 1.2194172,-0.33407 1.6203215,0.36749 0.2672696,0.48443 0.1670434,1.10249 0.1670434,1.10249 0,0 1.0050838,0.17699 1.0022608,1.58691 -0.033408,0.7517 -0.6347651,1.20271 -0.6347651,1.20271 0,0 0.2004521,1.18602 -0.3006781,1.57022 -0.5011303,0.3842 -1.6370256,-0.13364 -1.6370256,-0.13364 0,0 -0.1002261,0.98555 -1.0857826,0.83521 -0.9855562,-0.15034 -1.1860084,-0.56794 -1.1860084,-0.56794 0,0 -0.9688522,0.48443 -1.5200954,0.35079 -0.5512438,-0.13365 -0.2839741,-0.98557 -0.2839741,-0.98557 z"
       id="path817"
       inkscape:connector-curvature="0"
       sodipodi:nodetypes="ccscccccccccccscscccc" />
    <path
       style="fill:none;stroke:#000000;stroke-width:0.26458332px;stroke-linecap:butt;stroke-linejoin:miter;stroke-opacity:1"
       d="m 4.0925646,291.42073 h 2.956669 c 0,0 -1.3363474,2.18827 -2.956669,0 z"
       id="path819"
       inkscape:connector-curvature="0" />
    <circle
       style="fill:#000000;stroke-width:0.2;stroke-miterlimit:4;stroke-dasharray:none"
       id="path823"
       cx="4.5686383"
       cy="290.10944"
       r="0.55959558" />
    <circle
       style="fill:#000000;stroke-width:0.2;stroke-miterlimit:4;stroke-dasharray:none"
       id="path823-8"
       cx="6.347651"
       cy="290.1011"
       r="0.55959558" />
    <path
       style="fill:#ffffff;stroke-width:0.04772374;stroke-miterlimit:4;stroke-dasharray:none"
       d="m 23.577106,31.038036 c -2.042634,-0.368901 -3.471489,-1.094851 -3.927962,-1.995657 l -0.1534,-0.302719 -0.365779,0.184644 c -1.03572,0.52283 -2.61159,1.07634 -3.627291,1.274053 -0.679968,0.132359 -1.523395,0.156113 -1.893523,0.05333 -0.958133,-0.266076 -1.135958,-1.550859 -0.495376,-3.579089 0.101445,-0.321197 0.163481,-0.583994 0.137858,-0.583994 -0.02562,0 -2.028404,0.982188 -4.4506248,2.18264 -2.4222204,1.200452 -4.4123948,2.173513 -4.4226099,2.162358 -0.010215,-0.01116 1.2878737,-1.677234 2.8846416,-3.702395 1.5967678,-2.025162 2.8866841,-3.698643 2.8664801,-3.718846 -0.0202,-0.0202 -0.4135467,0.02497 -0.8740963,0.100387 C 7.9059565,23.333724 7.006838,23.256476 6.1406825,22.845141 5.0706576,22.336988 4.4584591,21.330316 4.4456736,20.057943 4.441111,19.603889 4.4629046,19.506018 4.6565509,19.110925 5.1213609,18.162581 6.2174588,17.328922 7.7709318,16.742221 8.0747668,16.627471 8.3230807,16.51716 8.3227405,16.497085 8.3223996,16.47701 8.0381523,16.280667 7.691078,16.060767 6.3430194,15.206664 5.3157506,13.965441 5.0436241,12.861917 4.913269,12.333302 4.9487854,11.649312 5.1360026,11.082851 5.4242981,10.210559 6.027544,9.5592289 6.9659665,9.1070217 7.6121447,8.7956412 8.052792,8.7020276 8.6968184,8.7393097 c 0.5009834,0.029001 0.5262632,0.038417 1.0398998,0.3873167 0.2895388,0.196676 0.5445498,0.3575926 0.5666898,0.3575926 0.02214,0 0.04068,-0.2485922 0.04119,-0.5524272 0.0012,-0.7036682 0.127218,-1.2356023 0.451927,-1.907454 0.480022,-0.9932109 1.735723,-2.0277484 2.79605,-2.3035881 0.534635,-0.1390832 1.356761,-0.1254074 1.963582,0.032663 0.532887,0.1388117 1.565449,0.5977403 1.886431,0.8384358 0.324938,0.2436617 0.335557,0.244044 0.58515,0.021061 0.809587,-0.7232736 2.151706,-1.3679916 3.302023,-1.586203 0.652031,-0.1236881 1.851207,-0.1251218 2.428181,-0.0029 0.643524,0.1363158 1.301979,0.4723969 1.735294,0.8857091 0.609801,0.5816518 1.01287,1.5029502 1.01287,2.3151272 0,0.2010484 0.0214,0.3655427 0.04755,0.3655427 0.02615,0 0.236825,-0.054127 0.468158,-0.1202828 1.150017,-0.3288752 2.901739,-0.4053183 3.809005,-0.1662206 1.280839,0.3375477 1.910821,1.0060342 2.288298,2.4281559 0.143312,0.539919 0.159671,0.716299 0.152705,1.64642 -0.0043,0.572946 -0.01547,1.152604 -0.02485,1.288128 l -0.01704,0.246408 0.384005,0.07892 c 1.161327,0.238684 2.248425,1.174271 2.831965,2.437266 0.44614,0.965613 0.683128,2.462855 0.545523,3.446504 -0.184233,1.316953 -1.010274,2.785713 -2.021572,3.594498 -0.342296,0.273751 -0.376981,0.322933 -0.348006,0.493459 0.203583,1.198157 0.189723,3.04766 -0.02945,3.929951 -0.241737,0.973116 -0.653625,1.562587 -1.299329,1.859527 -0.289186,0.132988 -0.400429,0.144817 -1.325825,0.140974 -0.954575,-0.004 -1.057046,-0.01676 -1.862469,-0.232504 -0.73479,-0.196829 -1.605493,-0.510332 -2.473612,-0.890644 l -0.232336,-0.101784 -0.03826,0.362025 c -0.139242,1.317615 -0.75675,2.394436 -1.612077,2.811162 -0.623715,0.303883 -1.257045,0.361018 -2.171384,0.195887 z M 22.370793,22.94435 c 1.86536,-0.507629 3.596347,-1.93609 4.90541,-4.048088 l 0.296589,-0.478506 -3.279696,-0.01635 c -1.803832,-0.009 -4.759686,-0.009 -6.568564,0 l -3.288867,0.01635 0.621433,0.81992 c 1.716981,2.265384 3.388967,3.48477 5.240341,3.821801 0.459076,0.08357 1.569847,0.02189 2.073354,-0.115127 z m -4.232039,-7.042927 c 1.401363,-0.641566 1.69867,-2.466121 0.571194,-3.505393 -0.459324,-0.423389 -0.780735,-0.543633 -1.453052,-0.543602 -0.502785,2.3e-5 -0.610306,0.0213 -0.93379,0.184797 -0.426896,0.215761 -0.820637,0.617817 -1.013176,1.034572 -0.109448,0.236902 -0.136389,0.413637 -0.136427,0.894974 -4.4e-5,0.563587 0.01304,0.623907 0.216758,0.999661 0.543029,1.001587 1.72486,1.403625 2.748493,0.934991 z m 6.625729,0.01913 c 0.454765,-0.170149 0.911239,-0.5882 1.144119,-1.047815 0.166312,-0.328236 0.187093,-0.432526 0.18681,-0.937529 -3.79e-4,-0.672313 -0.120796,-0.993986 -0.543948,-1.453052 -1.047864,-1.136798 -2.856593,-0.8318 -3.517599,0.593159 -0.134476,0.289896 -0.16443,0.44723 -0.163707,0.859893 0.0017,0.966707 0.526042,1.690047 1.469383,2.027017 0.358108,0.12792 1.02369,0.108455 1.424942,-0.04167 z"
       id="path855"
       inkscape:connector-curvature="0"
       transform="matrix(0.26458333,0,0,0.26458333,0,286.41665)" />
    <path
       style="fill:#ffffff;stroke-width:0.04772374;stroke-miterlimit:4;stroke-dasharray:none"
       d="m 20.09795,21.928173 c -1.00982,-0.276969 -1.836525,-0.795369 -2.836949,-1.778961 l -0.698585,-0.686831 4.50364,-0.0015 4.503641,-0.0015 -0.193056,0.243754 c -0.476989,0.602248 -1.549852,1.467071 -2.281882,1.839399 -0.651891,0.331569 -1.116602,0.451487 -1.860388,0.48007 -0.551074,0.02118 -0.785738,0.0017 -1.136421,-0.09452 z"
       id="path857"
       inkscape:connector-curvature="0"
       transform="matrix(0.26458333,0,0,0.26458333,0,286.41665)" />
  </g>
</svg>
