<?xml version="1.0" encoding="UTF-8" standalone="no"?>
<!-- Created with Inkscape (http://www.inkscape.org/) -->

<svg
   xmlns:dc="http://purl.org/dc/elements/1.1/"
   xmlns:cc="http://creativecommons.org/ns#"
   xmlns:rdf="http://www.w3.org/1999/02/22-rdf-syntax-ns#"
   xmlns:svg="http://www.w3.org/2000/svg"
   xmlns="http://www.w3.org/2000/svg"
   xmlns:xlink="http://www.w3.org/1999/xlink"
   xmlns:sodipodi="http://sodipodi.sourceforge.net/DTD/sodipodi-0.dtd"
   xmlns:inkscape="http://www.inkscape.org/namespaces/inkscape"
   width="40"
   height="40"
   viewBox="0 0 10.583333 10.583334"
   version="1.1"
   id="svg4780"
   inkscape:version="0.92.4 (5da689c313, 2019-01-14)"
   sodipodi:docname="logging.svg"
   inkscape:export-filename="D:\SteamLibrary\steamapps\common\RimWorld\Mods\FactionColonies\Textures\GUI\productionlogging.png"
   inkscape:export-xdpi="96"
   inkscape:export-ydpi="96">
  <defs
     id="defs4774">
    <linearGradient
       inkscape:collect="always"
       id="linearGradient6759">
      <stop
         style="stop-color:#005d00;stop-opacity:1;"
         offset="0"
         id="stop6755" />
      <stop
         style="stop-color:#b2b2b2;stop-opacity:1"
         offset="1"
         id="stop6757" />
    </linearGradient>
    <radialGradient
       inkscape:collect="always"
       xlink:href="#linearGradient6759"
       id="radialGradient6827"
       cx="4.9145713"
       cy="290.52893"
       fx="4.9145713"
       fy="290.52893"
       r="2.3038121"
       gradientTransform="matrix(2.4547672,3.6432952,-1.9272045,1.2985053,552.75911,-104.62966)"
       gradientUnits="userSpaceOnUse" />
    <radialGradient
       inkscape:collect="always"
       xlink:href="#linearGradient6759"
       id="radialGradient8574"
       gradientUnits="userSpaceOnUse"
       gradientTransform="matrix(2.4729084,2.9165659,-1.9414469,1.039492,554.47615,-310.52064)"
       cx="4.9145713"
       cy="290.52893"
       fx="4.9145713"
       fy="290.52893"
       r="2.3038121" />
    <radialGradient
       inkscape:collect="always"
       xlink:href="#linearGradient6759"
       id="radialGradient8597"
       gradientUnits="userSpaceOnUse"
       gradientTransform="matrix(1.5425633,2.1303857,-1.2110456,0.75928985,351.11995,-223.89622)"
       cx="4.9145713"
       cy="290.52893"
       fx="4.9145713"
       fy="290.52893"
       r="2.3038121" />
  </defs>
  <sodipodi:namedview
     id="base"
     pagecolor="#ffffff"
     bordercolor="#666666"
     borderopacity="1.0"
     inkscape:pageopacity="0.0"
     inkscape:pageshadow="2"
     inkscape:zoom="15.999999"
     inkscape:cx="10.428172"
     inkscape:cy="19.026671"
     inkscape:document-units="px"
     inkscape:current-layer="layer8"
     showgrid="true"
     units="px"
     inkscape:window-width="1920"
     inkscape:window-height="1017"
     inkscape:window-x="-8"
     inkscape:window-y="-8"
     inkscape:window-maximized="1"
     inkscape:snap-others="false"
     inkscape:snap-nodes="false">
    <inkscape:grid
       type="xygrid"
       id="grid5332" />
  </sodipodi:namedview>
  <metadata
     id="metadata4777">
    <rdf:RDF>
      <cc:Work
         rdf:about="">
        <dc:format>image/svg+xml</dc:format>
        <dc:type
           rdf:resource="http://purl.org/dc/dcmitype/StillImage" />
        <dc:title />
      </cc:Work>
    </rdf:RDF>
  </metadata>
  <g
     inkscape:groupmode="layer"
     id="layer5"
     inkscape:label="Layer 2"
     transform="translate(0,2.1166714)"
     style="display:inline" />
  <g
     inkscape:groupmode="layer"
     id="layer8"
     inkscape:label="Layer 4">
    <path
       inkscape:connector-curvature="0"
       id="path8570"
       d="m -0.95186176,11.166428 c 0.056757,-0.069 0.5803089,-0.18275 0.5846521,-0.18709 0.1099752,-0.10998 0.535538,-0.16136 0.561266,-0.18709 0.085099,-0.0851 0.77962167,-0.39362 1.05237366,-0.25725 0.053068,0.0265 0.3682188,0.0642 0.3741775,0.0702 0.1099397,0.10994 0.2400792,0.11071 0.3507912,0 0.023386,-0.0234 0.1169305,0.0234 0.1403165,0 0.053638,-0.0536 0.1402416,-0.11685 0.1870887,-0.1637 0.011692,-0.0117 0.058465,0.0117 0.070158,0 0.080887,-0.0809 0.070158,-0.33777 0.070158,-0.4911105 0,-0.31688 -0.09042,-0.71872 -0.2104747,-0.95883 -0.032478,-0.0649 0.021929,-0.14177 -0.023386,-0.18709 -0.011049,-0.0111 0.070158,-0.34682 0.070158,-0.46772 0,-0.15874 0.069449,-0.51591 0,-0.65481 -0.1030066,-0.20601 -0.2279465,-0.95291 -0.3274052,-1.05237 -0.1153489,-0.11535 0.1637024,-0.4332 0.1637024,-0.5145 0,-0.11008 0.1721215,-0.38259 0.233861,-0.44433 0.059425,-0.0594 0.015042,-0.2489 0.070158,-0.30402 0.00386,-0.004 0.080808,-0.64416 0.046772,-0.6782 -0.00474,-0.005 -0.053619,-0.0633 -0.023386,-0.0935 0.02468,-0.0247 0.4601956,-0.19462 0.4911077,-0.1637 0.031856,0.0319 0.079795,0.0702 0.1403165,0.0702 0.041132,0 0.1431345,-0.0439 0.1637027,-0.0234 0.06626,0.0663 0.0039,0.26114 0.070158,0.3274 0.067946,0.0679 0.1426249,0.76944 0.046772,0.86529 -0.025998,0.026 -0.067845,-0.028 -0.093544,0.0234 -0.017243,0.0345 0.026218,0.13749 0,0.16371 -0.027284,0.0273 -0.089647,0.0195 -0.1169305,0.0468 -0.062568,0.0626 0.017727,0.30968 -0.046772,0.37418 -0.026884,0.0269 0.1403165,0.96638 0.1403165,1.07576 0,0.0656 -0.015277,0.12409 -0.046772,0.18708 -0.022886,0.0458 0.035279,0.0119 0.046772,0.0234 0.011668,0.0117 0,0.0986 0,0.11693 0,0.0986 0.096235,0.48842 0.023386,0.56127 -0.026615,0.0266 -0.043543,-0.05 -0.070158,-0.0234 -0.04954,0.0495 0.023386,0.27238 0.023386,0.30402 0,0.0671 -0.012478,0.198 0.023386,0.23386 0.031531,0.0315 0.062014,-0.0783 0.093544,-0.0468 0.062363,0.0624 -0.038977,0.28843 0.023386,0.35079 0.07762,0.0776 -0.087624,0.87121 0,0.9588305 0.089647,0.0897 0.074056,0.28453 0.1637025,0.37418 0.1045223,0.10452 0.2037019,0.22708 0.2806329,0.30402 0.1354813,0.13548 0.5676628,0.1701 0.7249687,0.3274 0.037954,0.038 0.3145362,0 0.3741772,0"
       style="display:inline;fill:#ac9393;fill-opacity:1;stroke:#000000;stroke-width:0.26458335px;stroke-linecap:butt;stroke-linejoin:miter;stroke-opacity:1" />
    <path
       inkscape:connector-curvature="0"
       id="path8572"
       d="m 2.9563538,2.9761539 c 0,0 -1.08371,1.9095675 -1.4606527,2.3027076 C 1.1187583,5.6720096 2.4144988,4.9606029 2.4144988,4.9606029 L 1.0716408,6.4021407 2.084674,5.9715518 0.78893389,7.6377423 1.5899366,7.6002775 0.36487328,8.7797138 2.7678824,7.9747012 4.7939489,8.835879 3.7573566,7.6377182 H 4.4405653 L 3.6395622,5.9528034 4.4641241,6.3833923 3.403973,4.9418545 4.1578582,5.447333 Z"
       style="display:inline;fill:url(#radialGradient8574);fill-opacity:1;fill-rule:nonzero;stroke:#000000;stroke-width:0.237602px;stroke-linecap:butt;stroke-linejoin:miter;stroke-opacity:1" />
    <path
       style="display:inline;fill:#ac9393;fill-opacity:1;stroke:#000000;stroke-width:0.17859662px;stroke-linecap:butt;stroke-linejoin:miter;stroke-opacity:1"
       d="m 4.6522587,11.077895 c 0.035404,-0.0504 0.3619881,-0.133489 0.3646973,-0.136659 0.0686,-0.08034 0.3340606,-0.117864 0.3501094,-0.136658 0.053084,-0.06216 0.4863164,-0.287517 0.656455,-0.187907 0.033103,0.01935 0.2296894,0.0469 0.2334063,0.05128 0.068579,0.08031 0.1497579,0.08087 0.2188183,0 0.014588,-0.0171 0.07294,0.0171 0.087527,0 0.033458,-0.03916 0.087481,-0.08535 0.1167031,-0.119574 0.0073,-0.0085 0.03647,0.0085 0.043764,0 0.050456,-0.05909 0.043763,-0.246721 0.043763,-0.358728 0,-0.231463 -0.056402,-0.5249847 -0.131291,-0.7003711 -0.02026,-0.047406 0.013679,-0.1035549 -0.014588,-0.1366585 -0.00689,-0.00811 0.043763,-0.2533323 0.043763,-0.3416429 0,-0.1159505 0.043322,-0.3768429 0,-0.4783015 C 6.6011333,8.3821936 6.5231976,7.8366256 6.4611567,7.7639757 c -0.071953,-0.084257 0.1021152,-0.316428 0.1021152,-0.375813 0,-0.080407 0.1073669,-0.2794603 0.145879,-0.3245579 0.037068,-0.043388 0.00938,-0.1818073 0.043763,-0.2220693 0.00241,-0.00292 0.050407,-0.4705223 0.029176,-0.4953866 -0.00295,-0.00365 -0.033446,-0.046237 -0.014588,-0.068297 0.015396,-0.018042 0.2870632,-0.1421589 0.3063458,-0.1195735 0.019871,0.023301 0.049775,0.051277 0.087527,0.051277 0.025658,0 0.089285,-0.032067 0.1021153,-0.017092 0.041332,0.048429 0.00243,0.190748 0.043763,0.2391472 0.042384,0.049597 0.088967,0.5620322 0.029176,0.6320452 -0.016217,0.018991 -0.042321,-0.020452 -0.058351,0.017092 -0.010756,0.0252 0.016354,0.1004286 0,0.1195809 -0.017019,0.019941 -0.05592,0.014243 -0.072939,0.034185 -0.039029,0.045726 0.011058,0.2262036 -0.029176,0.2733172 -0.01677,0.019649 0.087527,0.7058858 0.087527,0.7857817 0,0.047917 -0.00953,0.090641 -0.029176,0.1366513 -0.014276,0.033454 0.022006,0.00869 0.029176,0.017092 0.00728,0.00854 0,0.072022 0,0.085411 0,0.072022 0.06003,0.3567631 0.014588,0.4099759 -0.016602,0.019429 -0.027162,-0.036522 -0.043763,-0.017092 -0.030902,0.036157 0.014588,0.1989582 0.014588,0.2220695 0,0.049012 -0.00779,0.1446276 0.014588,0.1708213 0.019668,0.023009 0.038684,-0.057194 0.058351,-0.034185 0.038901,0.04558 -0.024314,0.2106817 0.014588,0.2562321 0.048418,0.056682 -0.054658,0.6363693 0,0.7003713 0.05592,0.06552 0.046195,0.207834 0.1021151,0.273317 0.065199,0.07635 0.1270663,0.165868 0.1750546,0.222069 0.084511,0.09896 0.3540997,0.124249 0.4522247,0.239147 0.023676,0.02775 0.196203,0 0.2334061,0"
       id="path8593"
       inkscape:connector-curvature="0" />
    <path
       style="display:inline;fill:url(#radialGradient8597);fill-opacity:1;fill-rule:nonzero;stroke:#000000;stroke-width:0.16038391px;stroke-linecap:butt;stroke-linejoin:miter;stroke-opacity:1"
       d="m 7.0901454,5.0953645 c 0,0 -0.6760022,1.3948307 -0.9111334,1.6819971 C 5.9438807,7.064534 6.7521442,6.5448918 6.7521442,6.5448918 L 5.9144895,7.5978534 6.5464044,7.2833326 5.7381412,8.5003902 6.2377947,8.4730243 5.4736184,9.3345354 6.9725797,8.7465194 8.2364098,9.375561 7.589799,8.5003725 H 8.0159743 L 7.5163205,7.2696379 8.03067,7.5841587 7.3693635,6.5311972 7.8396259,6.9004205 Z"
       id="path8595"
       inkscape:connector-curvature="0" />
  </g>
  <g
     inkscape:label="Layer 1"
     inkscape:groupmode="layer"
     id="layer1"
     transform="translate(0,-286.41665)"
     style="display:inline">
    <path
       style="fill:#ac9393;stroke:#000000;stroke-width:0.26458335px;stroke-linecap:butt;stroke-linejoin:miter;stroke-opacity:1;fill-opacity:1"
       d="m 1.379779,296.6405 c 0.056757,-0.069 0.5803089,-0.18275 0.5846521,-0.18709 0.1099752,-0.10998 0.535538,-0.16136 0.561266,-0.18709 0.085099,-0.0851 0.7796217,-0.39362 1.0523737,-0.25725 0.053068,0.0265 0.3682188,0.0642 0.3741775,0.0702 0.1099397,0.10994 0.2400792,0.11071 0.3507912,0 0.023386,-0.0234 0.1169305,0.0234 0.1403165,0 0.053638,-0.0536 0.1402416,-0.11685 0.1870887,-0.1637 0.011692,-0.0117 0.058465,0.0117 0.070158,0 0.080887,-0.0809 0.070158,-0.33777 0.070158,-0.49111 0,-0.31688 -0.09042,-0.71872 -0.2104747,-0.95883 -0.032478,-0.0649 0.021929,-0.14177 -0.023386,-0.18709 -0.011049,-0.0111 0.070158,-0.34682 0.070158,-0.46772 0,-0.15874 0.069449,-0.51591 0,-0.65481 -0.1030066,-0.20601 -0.2279465,-0.95291 -0.3274052,-1.05237 -0.1153489,-0.11535 0.1637024,-0.4332 0.1637024,-0.5145 0,-0.11008 0.1721215,-0.38259 0.233861,-0.44433 0.059425,-0.0594 0.015042,-0.2489 0.070158,-0.30402 0.00386,-0.004 0.080808,-0.64416 0.046772,-0.6782 -0.00474,-0.005 -0.053619,-0.0633 -0.023386,-0.0935 0.02468,-0.0247 0.4601956,-0.19462 0.4911077,-0.1637 0.031856,0.0319 0.079795,0.0702 0.1403165,0.0702 0.041132,0 0.1431345,-0.0439 0.1637027,-0.0234 0.06626,0.0663 0.0039,0.26114 0.070158,0.3274 0.067946,0.0679 0.1426249,0.76944 0.046772,0.86529 -0.025998,0.026 -0.067845,-0.028 -0.093544,0.0234 -0.017243,0.0345 0.026218,0.13749 0,0.16371 -0.027284,0.0273 -0.089647,0.0195 -0.1169305,0.0468 -0.062568,0.0626 0.017727,0.30968 -0.046772,0.37418 -0.026884,0.0269 0.1403165,0.96638 0.1403165,1.07576 0,0.0656 -0.015277,0.12409 -0.046772,0.18708 -0.022886,0.0458 0.035279,0.0119 0.046772,0.0234 0.011668,0.0117 0,0.0986 0,0.11693 0,0.0986 0.096235,0.48842 0.023386,0.56127 -0.026615,0.0266 -0.043543,-0.05 -0.070158,-0.0234 -0.04954,0.0495 0.023386,0.27238 0.023386,0.30402 0,0.0671 -0.012478,0.198 0.023386,0.23386 0.031531,0.0315 0.062014,-0.0783 0.093544,-0.0468 0.062363,0.0624 -0.038977,0.28843 0.023386,0.35079 0.07762,0.0776 -0.087624,0.87121 0,0.95883 0.089647,0.0897 0.074056,0.28453 0.1637025,0.37418 0.1045223,0.10452 0.2037019,0.22708 0.2806329,0.30402 0.1354813,0.13548 0.5676628,0.1701 0.7249687,0.3274 0.037954,0.038 0.3145362,0 0.3741772,0"
       id="path6711"
       inkscape:connector-curvature="0" />
    <path
       style="fill:url(#radialGradient6827);fill-opacity:1;stroke:#000000;stroke-width:0.26458335px;stroke-linecap:butt;stroke-linejoin:miter;stroke-opacity:1;fill-rule:nonzero"
       d="m 5.2852552,286.98205 c 0,0 -1.0757599,2.38538 -1.4499374,2.87648 -0.3741775,0.49111 0.9120574,-0.39756 0.9120574,-0.39756 l -1.3330068,1.80073 1.0056016,-0.53788 -1.2862346,2.08136 0.7951266,-0.0468 -1.2160763,1.47332 2.3853807,-1.0056 2.0112033,1.07576 -1.0289879,-1.49671 h 0.6781967 l -0.7951269,-2.10475 0.8185129,0.53788 -1.0523739,-1.80073 0.7483547,0.63143 z"
       id="path6719"
       inkscape:connector-curvature="0" />
    <path
       style="fill:#3a8e3a;fill-opacity:1;stroke:#000000;stroke-width:0.36687687px;stroke-linecap:butt;stroke-linejoin:miter;stroke-opacity:1"
       d="m 0.65300227,297.09461 c 0.19331428,-0.0837 0.34178228,-0.41626 0.53972613,-0.6108 0.042536,-0.0418 0.071394,-0.15388 0.1308428,-0.19285 0.1284574,-0.0841 0.2714707,-0.0256 0.3761728,-0.12865 0.060193,-0.0591 0.1801853,-0.19286 0.2289747,-0.19286 0.022963,0 0.200113,-0.18525 0.2126194,-0.16084 0.051489,0.10128 -0.1393921,0.33682 -0.098133,0.41793 0.013241,0.026 0.1100406,0 0.1308426,0 0.1296086,0 0.2075341,0.0117 0.2943961,0.0964 0.077386,0.076 0.3841581,0.0321 0.4415941,0.0321 0.038162,0 0.076324,0 0.1144874,0 0.068059,0 0.1118682,0.0321 0.1799087,0.0321 0.2308649,0 -0.5927347,0.12848 -0.1799087,0.12848 0.1476772,0 0.5050097,-0.0682 0.6051476,0.12848 0.02244,0.0442 0.2915107,-0.0953 0.294396,-0.0964 0.3476671,-0.15189 0.3214115,-0.0645 0.5233709,-0.0645 0.1413161,0 0.2832842,0.0218 0.3761728,-0.16084 0.00912,-0.0174 0.1243692,-0.0418 0.1471981,-0.0645 0.028136,-0.0275 0.125075,0.0435 0.147198,0 0.03317,-0.0651 0,-0.13146 0,-0.19285 0,-0.0274 0.3162607,-0.0321 0.4088834,-0.0321 0.2203018,0 0.4509182,0.0229 0.6378582,-0.16085 0.021888,-0.0216 0.097346,0.0337 0.1144874,0 0.014764,-0.0288 -0.086055,-0.0238 -0.098133,0 -0.07167,0.14093 0.062381,-0.0321 0.1308428,-0.0321 0.1602043,0 0.3187303,0.0321 0.4743048,0.0321 0.05997,0 0.1199391,0 0.1799088,0 0.010904,0 0.032711,-0.0214 0.032711,0 0,0.0339 -0.049065,0.0661 -0.049065,0.0321 0,-0.0479 0.042292,0.0491 0.065421,0.0643 0.055669,0.0365 0.1526116,0 0.2126194,0 0.050464,0 0.3413863,-0.16483 0.3434621,-0.16085 0.024238,0.0476 -0.029395,0.0899 -0.032711,0.0964 -0.016355,0.0321 0,0.12847 -0.016355,0.16068 -0.00474,0.01 -0.1265436,-0.0238 -0.081776,0.0644 0.00988,0.0194 0.082622,0 0.098132,0 0.1055459,0 0.3336045,0.0899 0.4252389,0 0.034364,-0.0339 -3.14e-4,-0.0637 0.016356,-0.0964 0.00474,-0.01 -0.1097188,0.0871 -0.1799087,0.22502 -0.025896,0.051 0.2010126,0.0964 0.1799087,0.0964 -0.021806,0 -0.050001,-0.0303 -0.065421,0 -0.00755,0.0149 -0.049045,0.5143 -0.081776,0.57865 -0.032711,0.0644 -0.1635534,-0.0644 -0.196264,0 -0.1060666,0.20847 -0.6695193,0.15869 -0.768701,0.35363 -0.032426,0.0637 -0.2149004,-0.12401 -0.2616854,-0.0321 -0.011564,0.0228 0.00732,0.0677 0,0.0964 -0.00482,0.0194 -0.1313399,0 -0.1471981,0 -0.052143,0 -0.2939243,0.0651 -0.3271067,0 -0.06203,-0.12185 -0.4743048,-0.18352 -0.4743048,-0.32146 0,-0.10322 -0.5088709,0.0321 -0.5887923,0.0321 -0.069806,0 -0.019303,0.0473 -0.081776,0.0964 -0.072052,0.0566 -0.359734,0.16086 -0.4579495,0.0643 -0.048114,-0.0473 -0.4662065,-0.18486 -0.5233709,-0.12847 -0.2050056,0.20148 -0.5078195,-0.17593 -0.6215028,-0.0645 -0.1141441,0.11221 -0.9245106,0.0174 -0.9486097,0.0645 -0.027273,0.0537 -0.1100544,0.0321 -0.1635534,0.0321 -0.1417463,0 -0.2834926,0 -0.4252388,0 -0.010903,0 -0.027835,-0.0194 -0.032711,0 -0.030779,0.12101 -0.3725848,0.16085 -0.4743048,0.16085 -0.1901948,0 -0.49603226,-0.0911 -0.62150288,0.0321"
       id="path6745"
       inkscape:connector-curvature="0"
       inkscape:export-filename="D:\SteamLibrary\steamapps\common\RimWorld\Mods\FactionColonies\Textures\GUI\productionlogging.png"
       inkscape:export-xdpi="96"
       inkscape:export-ydpi="96" />
  </g>
  <g
     inkscape:groupmode="layer"
     id="layer6"
     inkscape:label="Layer 3" />
</svg>
