<?xml version="1.0" encoding="UTF-8" standalone="no"?>
<!-- Created with Inkscape (http://www.inkscape.org/) -->

<svg
   xmlns:dc="http://purl.org/dc/elements/1.1/"
   xmlns:cc="http://creativecommons.org/ns#"
   xmlns:rdf="http://www.w3.org/1999/02/22-rdf-syntax-ns#"
   xmlns:svg="http://www.w3.org/2000/svg"
   xmlns="http://www.w3.org/2000/svg"
   xmlns:xlink="http://www.w3.org/1999/xlink"
   xmlns:sodipodi="http://sodipodi.sourceforge.net/DTD/sodipodi-0.dtd"
   xmlns:inkscape="http://www.inkscape.org/namespaces/inkscape"
   width="40"
   height="40"
   viewBox="0 0 10.583333 10.583334"
   version="1.1"
   id="svg4780"
   inkscape:version="0.92.4 (5da689c313, 2019-01-14)"
   sodipodi:docname="military.svg"
   inkscape:export-filename="D:\SteamLibrary\steamapps\common\RimWorld\Mods\FactionColonies\Textures\GUI\military.png"
   inkscape:export-xdpi="96"
   inkscape:export-ydpi="96">
  <defs
     id="defs4774">
    <linearGradient
       inkscape:collect="always"
       id="linearGradient6687">
      <stop
         style="stop-color:#b3b3b3;stop-opacity:1;"
         offset="0"
         id="stop6683" />
      <stop
         style="stop-color:#8a8a8a;stop-opacity:1"
         offset="1"
         id="stop6685" />
    </linearGradient>
    <radialGradient
       inkscape:collect="always"
       xlink:href="#linearGradient6687"
       id="radialGradient6691"
       cx="5.2639003"
       cy="291.77615"
       fx="5.2639003"
       fy="291.77615"
       r="3.2582801"
       gradientTransform="matrix(1,0,0,1.2117109,0.67819644,-61.468159)"
       gradientUnits="userSpaceOnUse" />
  </defs>
  <sodipodi:namedview
     id="base"
     pagecolor="#ffffff"
     bordercolor="#666666"
     borderopacity="1.0"
     inkscape:pageopacity="0.0"
     inkscape:pageshadow="2"
     inkscape:zoom="11.313708"
     inkscape:cx="26.021198"
     inkscape:cy="11.096315"
     inkscape:document-units="px"
     inkscape:current-layer="layer1"
     showgrid="true"
     units="px"
     inkscape:window-width="1920"
     inkscape:window-height="1017"
     inkscape:window-x="-8"
     inkscape:window-y="-8"
     inkscape:window-maximized="1"
     inkscape:snap-others="false"
     inkscape:snap-nodes="false">
    <inkscape:grid
       type="xygrid"
       id="grid5332" />
  </sodipodi:namedview>
  <metadata
     id="metadata4777">
    <rdf:RDF>
      <cc:Work
         rdf:about="">
        <dc:format>image/svg+xml</dc:format>
        <dc:type
           rdf:resource="http://purl.org/dc/dcmitype/StillImage" />
        <dc:title></dc:title>
      </cc:Work>
    </rdf:RDF>
  </metadata>
  <g
     inkscape:groupmode="layer"
     id="layer5"
     inkscape:label="Layer 2"
     transform="translate(0,2.1166714)"
     style="display:inline" />
  <g
     inkscape:label="Layer 1"
     inkscape:groupmode="layer"
     id="layer1"
     transform="translate(0,-286.41665)"
     style="display:inline">
    <g
       id="g6668"
       transform="matrix(1.2856634,0.27813527,-0.40195947,1.2524847,116.17673,-74.053386)"
       inkscape:export-filename="D:\SteamLibrary\steamapps\common\RimWorld\Mods\FactionColonies\Textures\GUI\military.png"
       inkscape:export-xdpi="96"
       inkscape:export-ydpi="96">
      <path
         sodipodi:nodetypes="cccccccccccsccccccccccccc"
         inkscape:connector-curvature="0"
         id="path4935"
         d="m 0.47883805,288.25767 c -0.40354273,-0.11662 -0.40417666,0.39109 -0.26546942,0.47724 0.13870671,0.0861 0.23112445,-0.0354 0.23112445,-0.0354 l 0.60498162,0.37512 0.8039799,0.33197 0.084658,0.12534 -0.029692,0.29382 0.4161206,0.25844 0.063429,-0.12068 -0.2288762,-0.30707 0.08304,-0.04 c 0,0 4.7942266,2.39299 5.5519502,2.62469 0.7577243,0.2317 0.8008117,0.21601 0.8008117,0.21601 0,0 -0.1599027,-0.22482 -0.3754084,-0.36109 -0.2155038,-0.13627 -5.9288773,-2.82907 -5.9288773,-2.82907 l -0.00631,-0.12458 0.2538432,-0.0534 0.050877,-0.15515 -0.4623136,-0.14403 -0.095556,0.11285 0.069005,0.18959 -0.1034122,0.0377 c 0,0 -0.7875687,-0.47459 -1.44891339,-0.6828 -0.0421699,-0.1827 -0.0690069,-0.18959 -0.0690069,-0.18959 z"
         style="display:inline;fill:#e6e6e6;stroke:#000000;stroke-width:0.11091565;stroke-linecap:butt;stroke-linejoin:miter;stroke-miterlimit:4;stroke-dasharray:none;stroke-opacity:1" />
      <path
         sodipodi:nodetypes="cc"
         inkscape:connector-curvature="0"
         id="path4985"
         d="m 2.315318,289.28205 c -0.0076,0.0121 -0.00555,0.24337 -0.075118,0.34257"
         style="display:inline;fill:none;stroke:#000000;stroke-width:0.14673217px;stroke-linecap:butt;stroke-linejoin:miter;stroke-opacity:1" />
      <path
         inkscape:connector-curvature="0"
         id="path4999"
         d="m 2.3096384,289.9839 c 0.00577,-0.0126 -0.021351,-0.0548 -0.116143,-0.18065 -0.068027,-0.0903 -0.123189,-0.16622 -0.1225807,-0.16867 5.601e-4,-0.002 0.0254,-0.0157 0.055092,-0.0293 0.063366,-0.0292 0.068195,-0.0383 0.091908,-0.17278 0.01428,-0.081 0.016415,-0.22263 0.00482,-0.32172 -0.00144,-0.0123 0.024989,-0.021 0.1265148,-0.0419 0.070578,-0.0145 0.1314855,-0.0284 0.1353499,-0.0308 0.00388,-0.002 0.012207,-0.0182 0.018523,-0.0353 l 0.011497,-0.0309 -0.1708545,-0.0514 c -0.093968,-0.0283 -0.1766564,-0.0542 -0.1837479,-0.0575 -0.012101,-0.006 -0.052197,0.032 -0.055813,0.0525 -8.375e-4,0.005 0.014108,0.0518 0.033241,0.10437 0.019133,0.0525 0.032104,0.10007 0.02881,0.10554 -0.00559,0.009 -0.1623868,0.0691 -0.1752729,0.0669 -0.00327,-5.6e-4 -0.080073,-0.0431 -0.1707053,-0.0944 -0.429197,-0.24322 -0.99434324,-0.50515 -1.25335465,-0.58088 -0.0298419,-0.009 -0.0578232,-0.0191 -0.0621746,-0.0232 -0.00438,-0.004 -0.0185565,-0.0458 -0.0315781,-0.093 l -0.0236639,-0.0856 -0.047505,-0.008 c -0.0675971,-0.0119 -0.12701851,0.008 -0.16481906,0.0547 -0.0244623,0.0304 -0.0315833,0.0486 -0.0412992,0.10603 -0.0100604,0.0596 -0.009068,0.0786 0.007313,0.13489 0.0215011,0.074 0.053101,0.10395 0.10891307,0.10334 0.0318773,-3.5e-4 0.0877493,-0.0379 0.10478141,-0.0705 0.00527,-0.01 0.0138976,-0.0155 0.0192493,-0.0121 0.005383,0.003 0.15234548,0.0947 0.32667436,0.2028 l 0.31696207,0.19665 0.4084763,0.16871 c 0.2246613,0.0928 0.4089399,0.17036 0.4095084,0.17238 5.428e-4,0.002 0.023692,0.0372 0.051387,0.0784 l 0.05035,0.0747 -0.013643,0.13964 -0.013659,0.13963 0.1301129,0.0807 c 0.071561,0.0444 0.1457813,0.0904 0.1649331,0.10217 0.033391,0.0207 0.035133,0.0208 0.04237,0.005 z"
         style="display:inline;fill:#ffe680;stroke-width:0.00693223;stroke-miterlimit:4;stroke-dasharray:none" />
      <path
         inkscape:connector-curvature="0"
         id="path5001"
         d="m 8.4263092,292.35338 c 0.00155,-0.009 -0.1229073,-0.12308 -0.1822534,-0.16724 -0.028244,-0.021 -0.1158464,-0.0708 -0.1946708,-0.11064 -0.3769858,-0.19057 -1.8270139,-0.88341 -4.0131458,-1.91751 -1.284268,-0.60749 -1.6340754,-0.7723 -1.6422094,-0.77374 -0.00438,-5.5e-4 -0.017841,0.0473 -0.029914,0.10679 l -0.02195,0.10819 0.055666,0.0276 c 0.030618,0.0152 0.1731765,0.086 0.3168012,0.15738 2.4251334,1.20545 4.4911333,2.18256 5.0111385,2.36999 0.1695801,0.0611 0.6983773,0.21148 0.7005446,0.19919 z"
         style="display:inline;fill:#999999;stroke-width:0.00693223;stroke-miterlimit:4;stroke-dasharray:none" />
    </g>
    <path
       style="display:inline;opacity:1;fill:url(#radialGradient6691);fill-opacity:1;stroke:#000000;stroke-width:0.22648335;stroke-linecap:butt;stroke-linejoin:miter;stroke-miterlimit:4;stroke-dasharray:none;stroke-opacity:1"
       d="m 2.8101838,289.63581 0.3117865,2.01403 c 0,0 0.1660554,2.7314 3.6366363,4.24901 3.7162454,-2.63759 1.8698454,-7.16376 1.8698454,-7.16376 0,0 -2.5308596,-0.0665 -3.0477056,-0.44475 -0.3782729,0.51685 -2.7705626,1.34547 -2.7705626,1.34547 z"
       id="path4837"
       inkscape:connector-curvature="0"
       sodipodi:nodetypes="cccccc" />
  </g>
  <g
     inkscape:groupmode="layer"
     id="layer6"
     inkscape:label="Layer 3">
    <path
       style="display:inline;fill:none;stroke:#000000;stroke-width:0.22644517px;stroke-linecap:butt;stroke-linejoin:miter;stroke-opacity:1"
       d="m 5.5807454,2.5530191 c 0,0 0.6793365,1.35866 1.132227,6.11402"
       id="path4932"
       inkscape:connector-curvature="0" />
  </g>
</svg>
